<svg xmlns="http://www.w3.org/2000/svg" xmlns:xlink="http://www.w3.org/1999/xlink" width="500" zoomAndPan="magnify" viewBox="0 0 375 374.999991" height="500" preserveAspectRatio="xMidYMid meet" version="1.0"><defs><g/><clipPath id="512e805786"><path d="M 212 128 L 317 128 L 317 206 L 212 206 Z M 212 128 " clip-rule="nonzero"/></clipPath><clipPath id="26421e534c"><path d="M 208.078125 140.039062 L 308.664062 115.660156 L 326.15625 187.820312 L 225.566406 212.203125 Z M 208.078125 140.039062 " clip-rule="nonzero"/></clipPath><clipPath id="187f05551c"><path d="M 208.078125 140.039062 L 308.664062 115.660156 L 326.15625 187.820312 L 225.566406 212.203125 Z M 208.078125 140.039062 " clip-rule="nonzero"/></clipPath><clipPath id="9947640de2"><path d="M 28.152344 178.132812 L 46.902344 178.132812 L 46.902344 196.882812 L 28.152344 196.882812 Z M 28.152344 178.132812 " clip-rule="nonzero"/></clipPath></defs><g clip-path="url(#512e805786)"><g clip-path="url(#26421e534c)"><g clip-path="url(#187f05551c)"><path fill="#9cff1e" d="M 314.703125 149.78125 C 315.078125 151.207031 315.867188 152.058594 316.515625 152.535156 C 315.539062 153.859375 314.554688 155.175781 313.566406 156.488281 C 312.492188 155.679688 310.742188 153.960938 309.976562 151.066406 C 308.160156 153.492188 306.328125 155.902344 304.46875 158.296875 C 302.347656 161.03125 300.195312 163.746094 298.011719 166.433594 C 295.828125 169.121094 293.609375 171.785156 291.351562 174.414062 C 289.089844 177.046875 286.789062 179.648438 284.433594 182.203125 C 282.074219 184.761719 279.660156 187.273438 277.160156 189.71875 C 274.660156 192.164062 272.078125 194.539062 269.339844 196.789062 C 266.597656 199.027344 263.722656 201.164062 260.453125 202.921875 C 258.808594 203.789062 257.058594 204.5625 255.082031 205.042969 C 254.089844 205.277344 253.039062 205.429688 251.921875 205.414062 C 251.363281 205.40625 250.789062 205.347656 250.214844 205.246094 C 249.640625 205.132812 249.066406 204.964844 248.503906 204.738281 C 247.949219 204.5 247.414062 204.210938 246.917969 203.871094 C 246.46875 203.527344 246.011719 203.207031 245.613281 202.789062 C 245.1875 202.40625 244.835938 201.945312 244.480469 201.496094 C 244.324219 201.257812 244.167969 201.015625 244.011719 200.773438 C 243.933594 200.65625 243.867188 200.53125 243.804688 200.402344 L 243.613281 200.027344 C 243.125 199.011719 242.792969 197.949219 242.632812 196.917969 L 242.5625 196.527344 L 242.519531 196.144531 C 242.492188 195.890625 242.460938 195.632812 242.445312 195.378906 C 242.429688 194.878906 242.394531 194.367188 242.417969 193.882812 C 242.460938 191.914062 242.765625 190.050781 243.183594 188.265625 C 243.601562 186.476562 244.132812 184.753906 244.714844 183.066406 C 245.886719 179.695312 247.265625 176.472656 248.703125 173.296875 C 250.140625 170.125 251.640625 167.007812 253.125 163.902344 C 254.613281 160.800781 256.085938 157.710938 257.457031 154.609375 C 258.820312 151.507812 260.105469 148.382812 261.027344 145.257812 C 261.488281 143.699219 261.847656 142.140625 262.023438 140.640625 L 262.066406 140.085938 L 262.089844 139.808594 L 262.097656 139.539062 C 262.097656 139.359375 262.109375 139.179688 262.109375 139.003906 L 262.085938 138.488281 C 262.035156 137.8125 261.921875 137.1875 261.730469 136.652344 C 261.527344 136.128906 261.257812 135.703125 260.90625 135.339844 C 260.816406 135.25 260.738281 135.152344 260.625 135.078125 L 260.46875 134.953125 C 260.414062 134.914062 260.371094 134.867188 260.300781 134.832031 C 260.171875 134.75 260.042969 134.671875 259.917969 134.585938 L 259.511719 134.382812 C 258.960938 134.128906 258.363281 133.953125 257.726562 133.855469 C 257.089844 133.753906 256.402344 133.757812 255.703125 133.804688 C 254.292969 133.914062 252.808594 134.3125 251.339844 134.839844 C 249.871094 135.386719 248.414062 136.082031 246.980469 136.859375 C 244.117188 138.425781 241.359375 140.324219 238.691406 142.355469 C 236.027344 144.394531 233.445312 146.582031 230.933594 148.859375 C 228.421875 151.136719 225.976562 153.496094 223.59375 155.925781 C 222.402344 157.136719 221.226562 158.367188 220.066406 159.609375 C 219.488281 160.230469 218.910156 160.855469 218.34375 161.484375 C 217.777344 162.109375 217.199219 162.753906 216.667969 163.367188 L 212.957031 160.179688 C 213.554688 159.492188 214.125 158.851562 214.714844 158.199219 C 215.300781 157.550781 215.894531 156.910156 216.488281 156.273438 C 217.675781 154.996094 218.882812 153.738281 220.105469 152.496094 C 222.546875 150.007812 225.058594 147.582031 227.648438 145.234375 C 230.242188 142.882812 232.917969 140.613281 235.722656 138.46875 C 238.53125 136.328125 241.460938 134.304688 244.640625 132.5625 C 246.234375 131.695312 247.890625 130.90625 249.652344 130.25 C 251.417969 129.613281 253.285156 129.089844 255.316406 128.929688 C 256.328125 128.855469 257.375 128.851562 258.441406 129.015625 C 259.503906 129.175781 260.578125 129.484375 261.589844 129.953125 C 261.839844 130.078125 262.089844 130.203125 262.335938 130.335938 L 263.042969 130.777344 C 263.160156 130.847656 263.28125 130.945312 263.398438 131.035156 L 263.75 131.3125 C 263.988281 131.488281 264.199219 131.710938 264.410156 131.925781 C 265.261719 132.792969 265.910156 133.863281 266.316406 134.949219 C 266.714844 136.039062 266.890625 137.125 266.964844 138.167969 L 267 138.941406 C 267 139.195312 266.992188 139.445312 266.988281 139.695312 L 266.976562 140.070312 L 266.949219 140.4375 L 266.886719 141.171875 C 266.664062 143.09375 266.234375 144.898438 265.722656 146.640625 C 264.6875 150.125 263.339844 153.382812 261.933594 156.582031 C 260.523438 159.78125 259.027344 162.910156 257.539062 166.015625 C 256.050781 169.125 254.5625 172.214844 253.160156 175.316406 C 251.753906 178.414062 250.425781 181.53125 249.335938 184.667969 C 248.796875 186.234375 248.316406 187.808594 247.949219 189.375 C 247.578125 190.9375 247.339844 192.496094 247.308594 193.972656 C 247.285156 194.347656 247.320312 194.695312 247.328125 195.058594 C 247.339844 195.234375 247.363281 195.402344 247.378906 195.574219 L 247.40625 195.835938 L 247.453125 196.082031 C 247.550781 196.75 247.753906 197.347656 248.011719 197.882812 L 248.109375 198.078125 C 248.140625 198.148438 248.171875 198.214844 248.214844 198.269531 C 248.296875 198.390625 248.375 198.511719 248.449219 198.636719 C 248.636719 198.851562 248.796875 199.089844 249.019531 199.277344 C 249.210938 199.492188 249.472656 199.65625 249.695312 199.847656 C 249.914062 199.992188 250.136719 200.113281 250.371094 200.214844 C 250.613281 200.308594 250.863281 200.382812 251.132812 200.441406 C 251.40625 200.484375 251.691406 200.519531 251.996094 200.523438 C 252.601562 200.53125 253.269531 200.441406 253.953125 200.285156 C 255.328125 199.953125 256.757812 199.34375 258.15625 198.597656 C 260.960938 197.097656 263.652344 195.121094 266.238281 193.003906 C 268.824219 190.878906 271.316406 188.589844 273.738281 186.21875 C 276.164062 183.847656 278.523438 181.394531 280.835938 178.886719 C 283.148438 176.378906 285.410156 173.824219 287.636719 171.230469 C 289.863281 168.632812 292.054688 166.003906 294.214844 163.347656 C 296.375 160.691406 298.503906 158.007812 300.601562 155.296875 C 302.441406 152.929688 304.261719 150.539062 306.054688 148.136719 C 303.074219 148.207031 300.949219 146.972656 299.875 146.164062 C 300.832031 144.898438 301.78125 143.628906 302.722656 142.351562 C 303.367188 142.832031 304.410156 143.34375 305.867188 143.296875 C 307.320312 143.25 309.214844 142.628906 311.5 140.851562 L 315.339844 143.558594 C 314.359375 146.371094 314.324219 148.351562 314.703125 149.78125 Z M 314.703125 149.78125 " fill-opacity="1" fill-rule="nonzero"/></g></g></g><g clip-path="url(#9947640de2)"><path fill="#9cff1e" d="M 46.835938 184.933594 L 46.835938 190.0625 C 40.625 191.878906 39.695312 195.101562 39.695312 196.863281 L 34.351562 196.863281 C 34.351562 195.394531 34.691406 192.734375 36.730469 190.171875 L 28.15625 190.171875 L 28.15625 184.824219 L 36.730469 184.824219 C 34.691406 182.261719 34.351562 179.601562 34.351562 178.132812 L 39.695312 178.132812 C 39.695312 179.894531 40.625 183.117188 46.835938 184.933594 Z M 46.835938 184.933594 " fill-opacity="1" fill-rule="nonzero"/></g><g fill="#ffffff" fill-opacity="1"><g transform="translate(48.966282, 201.419972)"><g><path d="M 0.851562 0 L 11.9375 0 L 11.9375 -14.195312 L 20.078125 0 L 27.324219 0 L 35.46875 -14.195312 L 35.46875 0 L 46.550781 0 L 46.550781 -29.839844 L 32.910156 -29.839844 L 23.703125 -12.789062 L 14.496094 -29.839844 L 0.851562 -29.839844 Z M 0.851562 0 "/></g></g></g><g fill="#ffffff" fill-opacity="1"><g transform="translate(96.360852, 201.419972)"><g><path d="M 15.601562 0 L 26.6875 0 L 26.6875 -9.804688 L 41.863281 -29.839844 L 29.074219 -29.839844 L 21.144531 -18.757812 L 13.214844 -29.839844 L 0.425781 -29.839844 L 15.601562 -9.804688 Z M 15.601562 0 "/></g></g></g><g fill="#ffffff" fill-opacity="1"><g transform="translate(138.640898, 201.419972)"><g/></g></g><g fill="#ffffff" fill-opacity="1"><g transform="translate(155.689309, 201.419972)"><g><path d="M 13.214844 0 L 24.300781 0 L 24.300781 -20.460938 L 37.089844 -20.460938 L 37.089844 -29.839844 L 0.425781 -29.839844 L 0.425781 -20.460938 L 13.214844 -20.460938 Z M 13.214844 0 "/></g></g></g><g fill="#ffffff" fill-opacity="1"><g transform="translate(193.195806, 201.419972)"><g><path d="M 19.183594 0.425781 C 32.269531 0.425781 37.941406 -4.605469 37.941406 -14.964844 C 37.941406 -25.28125 32.269531 -30.265625 19.183594 -30.265625 C 6.054688 -30.265625 0.425781 -25.320312 0.425781 -14.964844 C 0.425781 -4.5625 6.054688 0.425781 19.183594 0.425781 Z M 19.183594 -8.953125 C 12.660156 -8.953125 11.511719 -11.765625 11.511719 -14.964844 C 11.511719 -18.117188 12.617188 -20.890625 19.183594 -20.890625 C 25.75 -20.890625 26.855469 -18.074219 26.855469 -14.964844 C 26.855469 -11.808594 25.707031 -8.953125 19.183594 -8.953125 Z M 19.183594 -8.953125 "/></g></g></g><g fill="#ffffff" fill-opacity="1"><g transform="translate(231.554717, 201.419972)"><g><path d="M 1.707031 -10.230469 L 35.808594 -10.230469 L 35.808594 -18.757812 L 1.707031 -18.757812 Z M 1.707031 -10.230469 "/></g></g></g><g fill="#ffffff" fill-opacity="1"><g transform="translate(269.061215, 201.419972)"><g><path d="M 0.851562 0 L 23.019531 0 C 30.226562 0 37.003906 -4.773438 37.003906 -14.921875 C 37.003906 -25.066406 30.226562 -29.839844 23.019531 -29.839844 L 0.851562 -29.839844 Z M 11.9375 -9.378906 L 11.9375 -20.460938 L 19.609375 -20.460938 C 21.996094 -20.460938 25.917969 -20.460938 25.917969 -14.921875 C 25.917969 -9.378906 21.996094 -9.378906 19.609375 -9.378906 Z M 11.9375 -9.378906 "/></g></g></g><g fill="#ffffff" fill-opacity="1"><g transform="translate(306.482454, 201.419972)"><g><path d="M 19.183594 0.425781 C 32.269531 0.425781 37.941406 -4.605469 37.941406 -14.964844 C 37.941406 -25.28125 32.269531 -30.265625 19.183594 -30.265625 C 6.054688 -30.265625 0.425781 -25.320312 0.425781 -14.964844 C 0.425781 -4.5625 6.054688 0.425781 19.183594 0.425781 Z M 19.183594 -8.953125 C 12.660156 -8.953125 11.511719 -11.765625 11.511719 -14.964844 C 11.511719 -18.117188 12.617188 -20.890625 19.183594 -20.890625 C 25.75 -20.890625 26.855469 -18.074219 26.855469 -14.964844 C 26.855469 -11.808594 25.707031 -8.953125 19.183594 -8.953125 Z M 19.183594 -8.953125 "/></g></g></g><g fill="#9cff1e" fill-opacity="1"><g transform="translate(48.966282, 232.820946)"><g><path d="M 0.417969 0 L 5.863281 0 L 5.863281 -3.433594 L 9.066406 -3.433594 L 11.097656 0 L 17.546875 0 L 14.949219 -4.207031 C 16.5625 -5.152344 17.546875 -6.910156 17.546875 -9.046875 C 17.546875 -12.3125 15.265625 -14.65625 11.9375 -14.65625 L 0.417969 -14.65625 Z M 5.863281 -8.039062 L 5.863281 -10.050781 L 10.890625 -10.050781 C 11.433594 -10.050781 12.101562 -10.050781 12.101562 -9.046875 C 12.101562 -8.039062 11.433594 -8.039062 10.890625 -8.039062 Z M 5.863281 -8.039062 "/></g></g></g><g fill="#9cff1e" fill-opacity="1"><g transform="translate(66.714614, 232.820946)"><g><path d="M 0.417969 0 L 15.914062 0 L 15.914062 -4.1875 L 5.863281 -4.1875 L 5.863281 -5.550781 L 15.914062 -5.550781 L 15.914062 -9.109375 L 5.863281 -9.109375 L 5.863281 -10.46875 L 15.914062 -10.46875 L 15.914062 -14.65625 L 0.417969 -14.65625 Z M 0.417969 0 "/></g></g></g><g fill="#9cff1e" fill-opacity="1"><g transform="translate(82.830434, 232.820946)"><g><path d="M 8.792969 0.210938 C 11.871094 0.210938 13.800781 -0.671875 15.035156 -2.113281 L 15.433594 0 L 18.574219 0 L 18.574219 -7.976562 L 9.066406 -7.976562 L 9.066406 -5.046875 L 13.003906 -5.046875 C 12.792969 -4.0625 11.515625 -3.769531 9.421875 -3.769531 C 6.21875 -3.769531 5.652344 -5.359375 5.652344 -7.140625 C 5.652344 -8.898438 6.199219 -10.261719 9.421875 -10.261719 C 11.726562 -10.261719 12.792969 -9.570312 13.003906 -8.816406 L 18.574219 -8.816406 C 18.34375 -12.816406 15.285156 -14.867188 9.421875 -14.867188 C 3.390625 -14.867188 0.210938 -12.4375 0.210938 -7.351562 C 0.210938 -2.242188 3.390625 0.210938 8.792969 0.210938 Z M 8.792969 0.210938 "/></g></g></g><g fill="#9cff1e" fill-opacity="1"><g transform="translate(101.604317, 232.820946)"><g><path d="M 0.417969 0 L 5.863281 0 L 5.863281 -14.65625 L 0.417969 -14.65625 Z M 0.417969 0 "/></g></g></g><g fill="#9cff1e" fill-opacity="1"><g transform="translate(107.883209, 232.820946)"><g><path d="M 9.570312 0.210938 C 15.578125 0.210938 18.929688 -0.816406 18.929688 -4.859375 C 18.929688 -8.691406 15.347656 -9.089844 9.570312 -9.316406 C 6.386719 -9.445312 5.863281 -9.421875 5.863281 -9.988281 C 5.863281 -10.554688 6.386719 -10.679688 8.941406 -10.679688 C 11.601562 -10.679688 12.855469 -10.511719 12.855469 -9.738281 L 18.300781 -9.738281 C 18.300781 -13.484375 15.078125 -14.867188 9.359375 -14.867188 C 3.582031 -14.867188 0.417969 -13.484375 0.417969 -10.261719 C 0.417969 -6.847656 2.953125 -5.757812 9.570312 -5.550781 C 13.003906 -5.445312 13.484375 -5.359375 13.484375 -4.734375 C 13.484375 -4.1875 13.003906 -3.980469 9.777344 -3.980469 C 6.324219 -3.980469 5.652344 -4.460938 5.652344 -5.171875 L 0.210938 -5.171875 C 0.210938 -0.816406 3.558594 0.210938 9.570312 0.210938 Z M 9.570312 0.210938 "/></g></g></g><g fill="#9cff1e" fill-opacity="1"><g transform="translate(127.012888, 232.820946)"><g><path d="M 6.492188 0 L 11.9375 0 L 11.9375 -10.050781 L 18.21875 -10.050781 L 18.21875 -14.65625 L 0.210938 -14.65625 L 0.210938 -10.050781 L 6.492188 -10.050781 Z M 6.492188 0 "/></g></g></g><g fill="#9cff1e" fill-opacity="1"><g transform="translate(145.430963, 232.820946)"><g><path d="M 0.417969 0 L 15.914062 0 L 15.914062 -4.1875 L 5.863281 -4.1875 L 5.863281 -5.550781 L 15.914062 -5.550781 L 15.914062 -9.109375 L 5.863281 -9.109375 L 5.863281 -10.46875 L 15.914062 -10.46875 L 15.914062 -14.65625 L 0.417969 -14.65625 Z M 0.417969 0 "/></g></g></g><g fill="#9cff1e" fill-opacity="1"><g transform="translate(161.546783, 232.820946)"><g><path d="M 0.417969 0 L 5.863281 0 L 5.863281 -3.433594 L 9.066406 -3.433594 L 11.097656 0 L 17.546875 0 L 14.949219 -4.207031 C 16.5625 -5.152344 17.546875 -6.910156 17.546875 -9.046875 C 17.546875 -12.3125 15.265625 -14.65625 11.9375 -14.65625 L 0.417969 -14.65625 Z M 5.863281 -8.039062 L 5.863281 -10.050781 L 10.890625 -10.050781 C 11.433594 -10.050781 12.101562 -10.050781 12.101562 -9.046875 C 12.101562 -8.039062 11.433594 -8.039062 10.890625 -8.039062 Z M 5.863281 -8.039062 "/></g></g></g><g fill="#9cff1e" fill-opacity="1"><g transform="translate(179.295115, 232.820946)"><g/></g></g><g fill="#9cff1e" fill-opacity="1"><g transform="translate(187.666971, 232.820946)"><g><path d="M 6.492188 0 L 11.9375 0 L 11.9375 -10.050781 L 18.21875 -10.050781 L 18.21875 -14.65625 L 0.210938 -14.65625 L 0.210938 -10.050781 L 6.492188 -10.050781 Z M 6.492188 0 "/></g></g></g><g fill="#9cff1e" fill-opacity="1"><g transform="translate(206.085045, 232.820946)"><g><path d="M 0.210938 0 L 6.199219 0 L 7.203125 -2.636719 L 13.445312 -2.636719 L 14.449219 0 L 20.4375 0 L 14.363281 -14.65625 L 6.28125 -14.65625 Z M 8.628906 -6.40625 L 10.324219 -10.890625 L 12.019531 -6.40625 Z M 8.628906 -6.40625 "/></g></g></g><g fill="#9cff1e" fill-opacity="1"><g transform="translate(226.72166, 232.820946)"><g><path d="M 9.570312 0.210938 C 15.578125 0.210938 18.929688 -0.816406 18.929688 -4.859375 C 18.929688 -8.691406 15.347656 -9.089844 9.570312 -9.316406 C 6.386719 -9.445312 5.863281 -9.421875 5.863281 -9.988281 C 5.863281 -10.554688 6.386719 -10.679688 8.941406 -10.679688 C 11.601562 -10.679688 12.855469 -10.511719 12.855469 -9.738281 L 18.300781 -9.738281 C 18.300781 -13.484375 15.078125 -14.867188 9.359375 -14.867188 C 3.582031 -14.867188 0.417969 -13.484375 0.417969 -10.261719 C 0.417969 -6.847656 2.953125 -5.757812 9.570312 -5.550781 C 13.003906 -5.445312 13.484375 -5.359375 13.484375 -4.734375 C 13.484375 -4.1875 13.003906 -3.980469 9.777344 -3.980469 C 6.324219 -3.980469 5.652344 -4.460938 5.652344 -5.171875 L 0.210938 -5.171875 C 0.210938 -0.816406 3.558594 0.210938 9.570312 0.210938 Z M 9.570312 0.210938 "/></g></g></g><g fill="#9cff1e" fill-opacity="1"><g transform="translate(245.85134, 232.820946)"><g><path d="M 0.417969 0 L 5.863281 0 L 5.863281 -2.785156 L 8.125 -4.648438 L 12.816406 0 L 20.355469 0 L 11.914062 -7.746094 L 20.355469 -14.65625 L 12.605469 -14.65625 L 5.863281 -8.921875 L 5.863281 -14.65625 L 0.417969 -14.65625 Z M 0.417969 0 "/></g></g></g><g fill="#9cff1e" fill-opacity="1"><g transform="translate(266.404241, 232.820946)"><g><path d="M 9.570312 0.210938 C 15.578125 0.210938 18.929688 -0.816406 18.929688 -4.859375 C 18.929688 -8.691406 15.347656 -9.089844 9.570312 -9.316406 C 6.386719 -9.445312 5.863281 -9.421875 5.863281 -9.988281 C 5.863281 -10.554688 6.386719 -10.679688 8.941406 -10.679688 C 11.601562 -10.679688 12.855469 -10.511719 12.855469 -9.738281 L 18.300781 -9.738281 C 18.300781 -13.484375 15.078125 -14.867188 9.359375 -14.867188 C 3.582031 -14.867188 0.417969 -13.484375 0.417969 -10.261719 C 0.417969 -6.847656 2.953125 -5.757812 9.570312 -5.550781 C 13.003906 -5.445312 13.484375 -5.359375 13.484375 -4.734375 C 13.484375 -4.1875 13.003906 -3.980469 9.777344 -3.980469 C 6.324219 -3.980469 5.652344 -4.460938 5.652344 -5.171875 L 0.210938 -5.171875 C 0.210938 -0.816406 3.558594 0.210938 9.570312 0.210938 Z M 9.570312 0.210938 "/></g></g></g></svg>